<?xml version="1.0" encoding="UTF-8" standalone="no"?>
<svg viewBox="0 0 50 50" xmlns="http://www.w3.org/2000/svg">
<title>personnage</title>
<g transform="translate(0,-1002.3622)">
<g transform="matrix(.177009,-.061776,.061776,.177009,-4.963727,1001.0091)">
<path d="m212.65325,146.92668-.51436,81.6899-47.10695,22.75598-.0837-89.7085 47.70505-14.73738z" fill="#fff" stroke="#000" stroke-linecap="round" stroke-linejoin="round" stroke-width="3.74664"/>
<path d="m100.97289,136.95688 63.59901,25.11868-.4115,89.84325-63.68425-29.89783 .49674-85.0641z" stroke="#000"/>
<path d="m49.03995,258.5041 57.7585-32.80029 .7877-90.81905-60.61866,30.36228 2.07246,93.25706z" fill="#fff" stroke="#000" stroke-linecap="round" stroke-linejoin="round" stroke-width="3.74664"/>
<path d="m-2.8099,146.28772 108.93364-31.41599 106.48106,31.65425-48.79283,17.69984-57.03567-19.25781-57.89398,21.74143-51.69222-20.42172z" fill="#fff" stroke="#000" stroke-linecap="round" stroke-linejoin="round" stroke-width="3.74664"/>
<path d="m-3.71482,147.07907 2.06172,85.62756 51.15828,27.87814 .6484-94.34429-53.8684-19.16141z"/>
</g>
<g transform="matrix(.262652,-.091665,.091665,.262652,-16.497796,1055.4732)">
<g transform="matrix(1.098744,0,0,1.098744,139.627883,-103.673476)">
<path d="m30.5792,5.02834c-9.98433,0-18.08883,2.52519-18.08883,5.63143 0,.23297.05367.45703.14221.6826l.31286,8.21961c-.07483.20773 1.19304,2.8577 1.34952,3.00356 2.74367,2.5575 6.79569,3.98523 16.78001,3.98523s17.17428-2.34228 17.17428-5.44852c0-.36887.60846-1.64622.39035-1.99534v-8.16273c.01564-.09587.02844-.18735.02844-.28441s-.0128-.18855-.02844-.28442v-.25597h-.05688c-.88613-2.84949-8.6132-5.09104-18.00351-5.09104z" fill-rule="evenodd" stroke="#000" stroke-linecap="round" stroke-linejoin="round" stroke-width=".70866"/>
</g>
<path d="m191.84742-88.38121v7.38968c0,0-.66307,2.41676-10.51608,4.83171-9.53627,2.33732.0853-9.62078-.28422-9.37921 0,0 4.5475.28422 10.8003-2.84218z" fill="#fff" fill-rule="evenodd" stroke="#000"/>
</g>
<g transform="matrix(.277113,-.096712,.096712,.277113,-26.918006,1062.8419)">
<g transform="matrix(1.098744,0,0,1.098744,139.627883,-103.673476)">
<path d="m30.5792,5.02834c-9.98433,0-18.08883,2.52519-18.08883,5.63143 0,.23297.05367.45703.14221.6826l.31286,8.21961c-.07483.20773 1.19304,2.8577 1.34952,3.00356 2.74367,2.5575 6.79569,3.98523 16.78001,3.98523s17.17428-2.34228 17.17428-5.44852c0-.36887.60846-1.64622.39035-1.99534v-8.16273c.01564-.09587.02844-.18735.02844-.28441s-.0128-.18855-.02844-.28442v-.25597h-.05688c-.88613-2.84949-8.6132-5.09104-18.00351-5.09104z" fill-rule="evenodd" stroke="#000" stroke-linecap="round" stroke-linejoin="round" stroke-width=".70866"/>
<path d="m49.4393,7.7303c0,3.10784-8.09807,5.62724-18.08755,5.62724s-18.08755-2.5194-18.08755-5.62724 8.09807-5.62724 18.08755-5.62724 18.08755,2.5194 18.08755,5.62724z" fill="#fff" fill-rule="evenodd" transform="matrix(.787401,0,0,.723052,6.058768,4.821187)"/>
<path d="m49.4393,7.7303c0,3.10784-8.09807,5.62724-18.08755,5.62724s-18.08755-2.5194-18.08755-5.62724 8.09807-5.62724 18.08755-5.62724 18.08755,2.5194 18.08755,5.62724z" fill="#fff" fill-rule="evenodd" transform="matrix(.787401,0,0,.723052,36.262294,-1.597821)"/>
</g>
<path d="m191.84742-88.38121v7.38968c0,0-.66307,2.41676-10.51608,4.83171-9.53627,2.33732.0853-9.62078-.28422-9.37921 0,0 4.5475.28422 10.8003-2.84218z" fill="#fff" fill-rule="evenodd" stroke="#000"/>
</g>
<path d="m30.38639,1011.7966c-3.01224,1.0512-5.19146,2.6664-4.8644,3.6036 .02451.07.06434.1322.11478.1909l.95985,2.4469c-.0007.071.66083.7366.7234.7641 1.09704.4827 2.46985.4868 5.48209-.5645s4.9348-2.5149 4.60774-3.4521c-.03884-.1113.01026-.5607-.09233-.6431l-.85947-2.4626c-.0056-.03-.01117-.06-.02135-.089s-.02374-.055-.03856-.083l-.02697-.077-.01714.01c-.56737-.7663-3.13462-.629-5.96765.3597z" fill-rule="evenodd" stroke="#000" stroke-linecap="round" stroke-linejoin="round" stroke-width=".22645"/>
<path d="m49.4393,7.7303a18.08755,5.62724 0 1,1 -36.17509,0 18.08755,5.62724 0 1,1 36.17509,0z" fill="#fff" fill-rule="evenodd" transform="matrix(.256252,-.089432,.082123,.23531,22.334386,1014.3877)"/>
<path d="m36.43537,1012.6941 .70815,2.0291c0,0 .04952.7271-2.42453,2.3345-2.39451,1.5556-.89853-2.6499-.97684-2.5482 0,0 1.27591-.3577 2.69322-1.8154z" fill="#fff" fill-rule="evenodd" stroke="#000" stroke-width=".29083"/>
</g>
</svg>
