<?xml version="1.0" encoding="UTF-8" standalone="no"?>
<!-- Created with Inkscape (http://www.inkscape.org/) -->

<svg
   xmlns:dc="http://purl.org/dc/elements/1.1/"
   xmlns:cc="http://creativecommons.org/ns#"
   xmlns:rdf="http://www.w3.org/1999/02/22-rdf-syntax-ns#"
   xmlns:svg="http://www.w3.org/2000/svg"
   xmlns="http://www.w3.org/2000/svg"
   xmlns:sodipodi="http://sodipodi.sourceforge.net/DTD/sodipodi-0.dtd"
   xmlns:inkscape="http://www.inkscape.org/namespaces/inkscape"
   width="210mm"
   height="297mm"
   id="svg2"
   version="1.1"
   inkscape:version="0.48.5 r10040"
   sodipodi:docname="Neues Dokument 1">
  <defs
     id="defs4">
    <style
       type="text/css"
       id="style4444">.fil3 {fill:#286786}
    .fil1 {fill:#2FAED6}
    .fil4 {fill:#38C5FB}
    .fil0 {fill:#6296AB}
    .fil2 {fill:#6FB2D1}</style>
  </defs>
  <sodipodi:namedview
     id="base"
     pagecolor="#ffffff"
     bordercolor="#666666"
     borderopacity="1.0"
     inkscape:pageopacity="0.0"
     inkscape:pageshadow="2"
     inkscape:zoom="0.35"
     inkscape:cx="350"
     inkscape:cy="514.28571"
     inkscape:document-units="px"
     inkscape:current-layer="layer1"
     showgrid="false"
     inkscape:window-width="592"
     inkscape:window-height="420"
     inkscape:window-x="764"
     inkscape:window-y="0"
     inkscape:window-maximized="0" />
  <metadata
     id="metadata7">
    <rdf:RDF>
      <cc:Work
         rdf:about="">
        <dc:format>image/svg+xml</dc:format>
        <dc:type
           rdf:resource="http://purl.org/dc/dcmitype/StillImage" />
        <dc:title></dc:title>
      </cc:Work>
    </rdf:RDF>
  </metadata>
  <g
     inkscape:label="Ebene 1"
     inkscape:groupmode="layer"
     id="layer1">
    <g
       transform="translate(1553.4247,-919.5183)"
       inkscape:label="Ebene 1"
       id="layer1-6"
       style="fill:#000000">
      <flowRoot
         transform="matrix(0.32505,4.0912,-4.0912,0.32505,-597.59,-709.06)"
         style="font-size:8px;font-style:italic;font-weight:bold;fill:#000000;font-family:Plasmatica Rev"
         xml:space="preserve"
         id="flowRoot6403"><flowRegion
           id="flowRegion6405"><rect
             x="109.27"
             y="20.698999"
             width="63.061001"
             height="40.436001"
             style="fill:#000000"
             id="rect6407" /></flowRegion><flowPara
           id="flowPara6409" /></flowRoot>      <g
         transform="translate(2.6254,1.3127)"
         id="g7223"
         style="fill:#000000">
        <g
           transform="matrix(3.1345,0,0,3.1345,2547.7,-2981.5)"
           id="g3379"
           style="fill:#000000">
          <g
             transform="matrix(0.5097,0.46807,-0.46807,0.5097,-1148.7,884.31)"
             style="fill:#000000"
             id="g452">
            <rect
               x="330.95001"
               y="571.81"
               width="15.724"
               height="15.724"
               transform="matrix(0.99999863,0.0016581,-0.0016581,0.99999863,0,0)"
               style="opacity:0.95999995000000005;fill:#000000"
               ry="2.5158"
               id="rect454" />
            <rect
               x="350.03"
               y="571.81"
               width="15.724"
               height="15.724"
               transform="matrix(0.99999863,0.0016581,-0.0016581,0.99999863,0,0)"
               style="opacity:0.95999995000000005;fill:#000000"
               ry="2.5158"
               id="rect456" />
            <rect
               x="370.57001"
               y="571.81"
               width="15.724"
               height="15.724"
               transform="matrix(0.99999863,0.0016581,-0.0016581,0.99999863,0,0)"
               style="opacity:0.95999995000000005;fill:#000000"
               ry="2.5158"
               id="rect458" />
            <rect
               x="390.39001"
               y="571.81"
               width="15.724"
               height="15.724"
               transform="matrix(0.99999863,0.0016581,-0.0016581,0.99999863,0,0)"
               style="opacity:0.95999995000000005;fill:#000000"
               ry="2.5158"
               id="rect460" />
            <rect
               x="411.66"
               y="571.81"
               width="15.724"
               height="15.724"
               transform="matrix(0.99999863,0.0016581,-0.0016581,0.99999863,0,0)"
               style="opacity:0.95999995000000005;fill:#000000"
               ry="2.5158"
               id="rect462" />
            <rect
               x="430.73999"
               y="571.81"
               width="15.724"
               height="15.724"
               transform="matrix(0.99999863,0.0016581,-0.0016581,0.99999863,0,0)"
               style="opacity:0.95999995000000005;fill:#000000"
               ry="2.5158"
               id="rect464" />
            <rect
               x="452.76001"
               y="571.81"
               width="15.724"
               height="15.724"
               transform="matrix(0.99999863,0.0016581,-0.0016581,0.99999863,0,0)"
               style="opacity:0.95999995000000005;fill:#000000"
               ry="2.5158"
               id="rect466" />
            <rect
               x="473.29999"
               y="571.81"
               width="15.724"
               height="15.724"
               transform="matrix(0.99999863,0.0016581,-0.0016581,0.99999863,0,0)"
               style="opacity:0.95999995000000005;fill:#000000"
               ry="2.5158"
               id="rect468" />
            <rect
               x="495.32001"
               y="571.81"
               width="15.724"
               height="15.724"
               transform="matrix(0.99999863,0.0016581,-0.0016581,0.99999863,0,0)"
               style="opacity:0.95999995000000005;fill:#000000"
               ry="2.5158"
               id="rect470" />
            <rect
               x="515.85999"
               y="571.81"
               width="15.724"
               height="15.724"
               transform="matrix(0.99999863,0.0016581,-0.0016581,0.99999863,0,0)"
               style="opacity:0.95999995000000005;fill:#000000"
               ry="2.5158"
               id="rect472" />
            <rect
               x="537.88"
               y="571.81"
               width="15.724"
               height="15.724"
               transform="matrix(0.99999863,0.0016581,-0.0016581,0.99999863,0,0)"
               style="opacity:0.95999995000000005;fill:#000000"
               ry="2.5158"
               id="rect474" />
            <rect
               x="558.41998"
               y="571.81"
               width="15.724"
               height="15.724"
               transform="matrix(0.99999863,0.0016581,-0.0016581,0.99999863,0,0)"
               style="opacity:0.95999995000000005;fill:#000000"
               ry="2.5158"
               id="rect476" />
            <rect
               x="580.44"
               y="571.81"
               width="15.724"
               height="15.724"
               transform="matrix(0.99999863,0.0016581,-0.0016581,0.99999863,0,0)"
               style="opacity:0.95999995000000005;fill:#000000"
               ry="2.5158"
               id="rect478" />
            <rect
               x="601.71997"
               y="571.81"
               width="35.903"
               height="15.724"
               transform="matrix(0.99999863,0.0016581,-0.0016581,0.99999863,0,0)"
               style="opacity:0.95999995000000005;fill:#000000"
               ry="2.5158"
               id="rect480" />
            <rect
               x="330.98001"
               y="591.81"
               width="26.731001"
               height="15.724"
               transform="matrix(0.99999863,0.0016581,-0.0016581,0.99999863,0,0)"
               style="opacity:0.95999995000000005;fill:#000000"
               ry="2.5158"
               id="rect482" />
            <rect
               x="361.32999"
               y="591.81"
               width="15.724"
               height="15.724"
               transform="matrix(0.99999863,0.0016581,-0.0016581,0.99999863,0,0)"
               style="opacity:0.95999995000000005;fill:#000000"
               ry="2.5158"
               id="rect484" />
            <rect
               x="381.87"
               y="591.81"
               width="15.724"
               height="15.724"
               transform="matrix(0.99999863,0.0016581,-0.0016581,0.99999863,0,0)"
               style="opacity:0.95999995000000005;fill:#000000"
               ry="2.5158"
               id="rect486" />
            <rect
               x="401.69"
               y="591.81"
               width="15.724"
               height="15.724"
               transform="matrix(0.99999863,0.0016581,-0.0016581,0.99999863,0,0)"
               style="opacity:0.95999995000000005;fill:#000000"
               ry="2.5158"
               id="rect488" />
            <rect
               x="422.97"
               y="591.81"
               width="15.724"
               height="15.724"
               transform="matrix(0.99999863,0.0016581,-0.0016581,0.99999863,0,0)"
               style="opacity:0.95999995000000005;fill:#000000"
               ry="2.5158"
               id="rect490" />
            <rect
               x="442.04999"
               y="591.81"
               width="15.724"
               height="15.724"
               transform="matrix(0.99999863,0.0016581,-0.0016581,0.99999863,0,0)"
               style="opacity:0.95999995000000005;fill:#000000"
               ry="2.5158"
               id="rect492" />
            <rect
               x="464.06"
               y="591.81"
               width="15.724"
               height="15.724"
               transform="matrix(0.99999863,0.0016581,-0.0016581,0.99999863,0,0)"
               style="opacity:0.95999995000000005;fill:#000000"
               ry="2.5158"
               id="rect494" />
            <rect
               x="484.60001"
               y="591.81"
               width="15.724"
               height="15.724"
               transform="matrix(0.99999863,0.0016581,-0.0016581,0.99999863,0,0)"
               style="opacity:0.95999995000000005;fill:#000000"
               ry="2.5158"
               id="rect496" />
            <rect
               x="506.62"
               y="591.81"
               width="15.724"
               height="15.724"
               transform="matrix(0.99999863,0.0016581,-0.0016581,0.99999863,0,0)"
               style="opacity:0.95999995000000005;fill:#000000"
               ry="2.5158"
               id="rect498" />
            <rect
               x="527.15997"
               y="591.81"
               width="15.724"
               height="15.724"
               transform="matrix(0.99999863,0.0016581,-0.0016581,0.99999863,0,0)"
               style="opacity:0.95999995000000005;fill:#000000"
               ry="2.5158"
               id="rect500" />
            <rect
               x="549.17999"
               y="591.81"
               width="15.724"
               height="15.724"
               transform="matrix(0.99999863,0.0016581,-0.0016581,0.99999863,0,0)"
               style="opacity:0.95999995000000005;fill:#000000"
               ry="2.5158"
               id="rect502" />
            <rect
               x="569.71997"
               y="591.81"
               width="15.724"
               height="15.724"
               transform="matrix(0.99999863,0.0016581,-0.0016581,0.99999863,0,0)"
               style="opacity:0.95999995000000005;fill:#000000"
               ry="2.5158"
               id="rect504" />
            <rect
               x="591.73999"
               y="591.81"
               width="15.724"
               height="15.724"
               transform="matrix(0.99999863,0.0016581,-0.0016581,0.99999863,0,0)"
               style="opacity:0.95999995000000005;fill:#000000"
               ry="2.5158"
               id="rect506" />
            <rect
               x="613.28003"
               y="591.81"
               width="25.158001"
               height="15.724"
               transform="matrix(0.99999863,0.0016581,-0.0016581,0.99999863,0,0)"
               style="opacity:0.95999995000000005;fill:#000000"
               ry="2.5158"
               id="rect508" />
            <rect
               x="331.01001"
               y="611.81"
               width="30.177999"
               height="15.724"
               transform="matrix(0.99999863,0.0016581,-0.0016581,0.99999863,0,0)"
               style="opacity:0.95999995000000005;fill:#000000"
               ry="2.5158"
               id="rect510" />
            <rect
               x="366.01001"
               y="611.81"
               width="15.724"
               height="15.724"
               transform="matrix(0.99999863,0.0016581,-0.0016581,0.99999863,0,0)"
               style="opacity:0.95999995000000005;fill:#000000"
               ry="2.5158"
               id="rect512" />
            <rect
               x="386.57001"
               y="611.81"
               width="15.724"
               height="15.724"
               transform="matrix(0.99999863,0.0016581,-0.0016581,0.99999863,0,0)"
               style="opacity:0.95999995000000005;fill:#000000"
               ry="2.5158"
               id="rect514" />
            <rect
               x="406.73999"
               y="611.81"
               width="15.724"
               height="15.724"
               transform="matrix(0.99999863,0.0016581,-0.0016581,0.99999863,0,0)"
               style="opacity:0.95999995000000005;fill:#000000"
               ry="2.5158"
               id="rect516" />
            <rect
               x="426.92999"
               y="611.81"
               width="15.724"
               height="15.724"
               transform="matrix(0.99999863,0.0016581,-0.0016581,0.99999863,0,0)"
               style="opacity:0.95999995000000005;fill:#000000"
               ry="2.5158"
               id="rect518" />
            <rect
               x="447.47"
               y="611.81"
               width="15.724"
               height="15.724"
               transform="matrix(0.99999863,0.0016581,-0.0016581,0.99999863,0,0)"
               style="opacity:0.95999995000000005;fill:#000000"
               ry="2.5158"
               id="rect520" />
            <rect
               x="468.75"
               y="611.81"
               width="15.724"
               height="15.724"
               transform="matrix(0.99999863,0.0016581,-0.0016581,0.99999863,0,0)"
               style="opacity:0.95999995000000005;fill:#000000"
               ry="2.5158"
               id="rect522" />
            <rect
               x="490.03"
               y="611.81"
               width="15.724"
               height="15.724"
               transform="matrix(0.99999863,0.0016581,-0.0016581,0.99999863,0,0)"
               style="opacity:0.95999995000000005;fill:#000000"
               ry="2.5158"
               id="rect524" />
            <rect
               x="511.31"
               y="611.81"
               width="15.724"
               height="15.724"
               transform="matrix(0.99999863,0.0016581,-0.0016581,0.99999863,0,0)"
               style="opacity:0.95999995000000005;fill:#000000"
               ry="2.5158"
               id="rect526" />
            <rect
               x="531.85999"
               y="611.81"
               width="15.724"
               height="15.724"
               transform="matrix(0.99999863,0.0016581,-0.0016581,0.99999863,0,0)"
               style="opacity:0.95999995000000005;fill:#000000"
               ry="2.5158"
               id="rect528" />
            <rect
               x="552.40002"
               y="611.81"
               width="15.724"
               height="15.724"
               transform="matrix(0.99999863,0.0016581,-0.0016581,0.99999863,0,0)"
               style="opacity:0.95999995000000005;fill:#000000"
               ry="2.5158"
               id="rect530" />
            <rect
               x="574.41998"
               y="611.81"
               width="15.724"
               height="15.724"
               transform="matrix(0.99999863,0.0016581,-0.0016581,0.99999863,0,0)"
               style="opacity:0.95999995000000005;fill:#000000"
               ry="2.5158"
               id="rect532" />
            <rect
               x="596.42999"
               y="611.81"
               width="40.349998"
               height="15.724"
               transform="matrix(0.99999863,0.0016581,-0.0016581,0.99999863,0,0)"
               style="opacity:0.95999995000000005;fill:#000000"
               ry="2.5158"
               id="rect534" />
            <rect
               x="331.04999"
               y="631.81"
               width="39.073002"
               height="15.724"
               transform="matrix(0.99999863,0.0016581,-0.0016581,0.99999863,0,0)"
               style="opacity:0.95999995000000005;fill:#000000"
               ry="2.5158"
               id="rect536" />
            <rect
               x="374.57001"
               y="631.81"
               width="15.724"
               height="15.724"
               transform="matrix(0.99999863,0.0016581,-0.0016581,0.99999863,0,0)"
               style="opacity:0.95999995000000005;fill:#000000"
               ry="2.5158"
               id="rect538" />
            <rect
               x="395.13"
               y="631.81"
               width="15.724"
               height="15.724"
               transform="matrix(0.99999863,0.0016581,-0.0016581,0.99999863,0,0)"
               style="opacity:0.95999995000000005;fill:#000000"
               ry="2.5158"
               id="rect540" />
            <rect
               x="415.29001"
               y="631.81"
               width="15.724"
               height="15.724"
               transform="matrix(0.99999863,0.0016581,-0.0016581,0.99999863,0,0)"
               style="opacity:0.95999995000000005;fill:#000000"
               ry="2.5158"
               id="rect542" />
            <rect
               x="435.48001"
               y="631.81"
               width="15.724"
               height="15.724"
               transform="matrix(0.99999863,0.0016581,-0.0016581,0.99999863,0,0)"
               style="opacity:0.95999995000000005;fill:#000000"
               ry="2.5158"
               id="rect544" />
            <rect
               x="456.03"
               y="631.81"
               width="15.724"
               height="15.724"
               transform="matrix(0.99999863,0.0016581,-0.0016581,0.99999863,0,0)"
               style="opacity:0.95999995000000005;fill:#000000"
               ry="2.5158"
               id="rect546" />
            <rect
               x="477.31"
               y="631.81"
               width="15.724"
               height="15.724"
               transform="matrix(0.99999863,0.0016581,-0.0016581,0.99999863,0,0)"
               style="opacity:0.95999995000000005;fill:#000000"
               ry="2.5158"
               id="rect548" />
            <rect
               x="498.59"
               y="631.81"
               width="15.724"
               height="15.724"
               transform="matrix(0.99999863,0.0016581,-0.0016581,0.99999863,0,0)"
               style="opacity:0.95999995000000005;fill:#000000"
               ry="2.5158"
               id="rect550" />
            <rect
               x="519.87"
               y="631.81"
               width="15.724"
               height="15.724"
               transform="matrix(0.99999863,0.0016581,-0.0016581,0.99999863,0,0)"
               style="opacity:0.95999995000000005;fill:#000000"
               ry="2.5158"
               id="rect552" />
            <rect
               x="540.41998"
               y="631.81"
               width="15.724"
               height="15.724"
               transform="matrix(0.99999863,0.0016581,-0.0016581,0.99999863,0,0)"
               style="opacity:0.95999995000000005;fill:#000000"
               ry="2.5158"
               id="rect554" />
            <rect
               x="560.96002"
               y="631.81"
               width="17.205999"
               height="15.724"
               transform="matrix(0.99999863,0.0016581,-0.0016581,0.99999863,0,0)"
               style="opacity:0.95999995000000005;fill:#000000"
               ry="2.5158"
               id="rect556" />
            <rect
               x="585.20001"
               y="631.81"
               width="51.52"
               height="15.724"
               transform="matrix(0.99999863,0.0016581,-0.0016581,0.99999863,0,0)"
               style="opacity:0.95999995000000005;fill:#000000"
               ry="2.5158"
               id="rect558" />
            <rect
               x="331.07999"
               y="651.81"
               width="26.101"
               height="15.724"
               transform="matrix(0.99999863,0.0016581,-0.0016581,0.99999863,0,0)"
               style="opacity:0.95999995000000005;fill:#000000"
               ry="2.5158"
               id="rect560" />
            <rect
               x="360.51999"
               y="651.81"
               width="19.801001"
               height="15.724"
               transform="matrix(0.99999863,0.0016581,-0.0016581,0.99999863,0,0)"
               style="opacity:0.95999995000000005;fill:#000000"
               ry="2.5158"
               id="rect562" />
            <rect
               x="384.78"
               y="651.81"
               width="19.954"
               height="15.724"
               transform="matrix(0.99999863,0.0016581,-0.0016581,0.99999863,0,0)"
               style="opacity:0.95999995000000005;fill:#000000"
               ry="2.5158"
               id="rect564" />
            <rect
               x="411.53"
               y="651.81"
               width="118.08"
               height="15.724"
               transform="matrix(0.99999863,0.0016581,-0.0016581,0.99999863,0,0)"
               style="opacity:0.95999995000000005;fill:#000000"
               ry="2.5158"
               id="rect566" />
            <rect
               x="537.84998"
               y="651.81"
               width="19.43"
               height="15.724"
               transform="matrix(0.99999863,0.0016581,-0.0016581,0.99999863,0,0)"
               style="opacity:0.95999995000000005;fill:#000000"
               ry="2.5158"
               id="rect568" />
            <rect
               x="563.59003"
               y="651.81"
               width="20.542"
               height="15.724"
               transform="matrix(0.99999863,0.0016581,-0.0016581,0.99999863,0,0)"
               style="opacity:0.95999995000000005;fill:#000000"
               ry="2.5158"
               id="rect570" />
            <rect
               x="589.83002"
               y="651.81"
               width="25.525999"
               height="15.724"
               transform="matrix(0.99999863,0.0016581,-0.0016581,0.99999863,0,0)"
               style="opacity:0.95999995000000005;fill:#000000"
               ry="2.5158"
               id="rect572" />
          </g>
          <path
             d="m -1156.2,1309.6 c -0.5449,0.1056 -1.1319,0.7498 -2.1562,1.7187 -7.8496,7.4251 -15.682,14.856 -23.531,22.281 -3.0236,2.398 -2.2487,2.6905 -0.2812,4.7812 2.097,2.2276 5.4515,5.7848 9.25,9.6875 6.3507,6.5251 11.438,12.844 11.438,12.844 l -21.312,22.969 30.25,27.812 c 6.7587,-7.5143 13.371,-15.042 19.688,-22.438 0.7839,0.7297 7.9235,7.9209 15.812,16 l 12.438,12.75 c 1.9349,2.3344 1.953,1.8131 3.8437,-0.25 l 9.9063,-10.781 c 1.6437,-1.7034 1.4662,-2.1376 0.4687,-3.7188 -2.4555,-3.8985 -8.1793,-13.629 -8.75,-20.406 l 0.6875,-14.188 c 0,0 -1.6105,-1.8384 -28.625,-29.656 -9.0537,-9.3224 -18.101,-18.648 -27.156,-27.969 -0.9213,-1.126 -1.4238,-1.5432 -1.9688,-1.4375 z"
             inkscape:connector-curvature="0"
             style="fill:#000000;stroke:#ffffff;stroke-width:0.25000000000000000;stroke-linecap:round;stroke-linejoin:round"
             id="path3377" />
          <path
             d="m -1235,1440 -51.688,55.688 c -2.1791,2.0301 -1.8958,2.0232 0.1563,3.9062 l 22.531,20.656 c 3.1661,3.508 3.5848,2.2971 6.0625,-0.094 7.4883,-7.2265 28.165,-27.353 52.844,-52.656 l -29.906,-27.5 z"
             inkscape:connector-curvature="0"
             style="fill:#000000;stroke:#ffffff;stroke-width:0.25000000000000000;stroke-linecap:round;stroke-linejoin:round"
             id="path450" />
          <path
             inkscape:connector-curvature="0"
             style="text-indent:0;text-transform:none;block-progression:tb;color:#000000;fill:#000000"
             d="m -1244.4,1326.3 c -2.713,-2.494 -6.9782,-2.3368 -9.4721,0.3761 l -43.758,47.6 c -2.494,2.7129 -2.2926,6.9764 0.4203,9.4704 l 156.53,143.9 c 2.7129,2.494 6.9552,2.3156 9.4492,-0.3973 l 43.758,-47.6 c 2.494,-2.7129 2.3155,-6.9551 -0.3974,-9.4491 l -156.4,-144 z m -1.8611,2.0245 156.53,143.9 c 1.6206,1.4898 1.7238,3.943 0.2341,5.5635 l -43.758,47.599 c -1.4898,1.6206 -3.943,1.7238 -5.5636,0.234 l -156.53,-143.9 c -1.6206,-1.4897 -1.7238,-3.9429 -0.234,-5.5635 l 43.758,-47.6 c 1.4897,-1.6205 3.9429,-1.7236 5.5635,-0.2339 z"
             id="rect3364" />
        </g>
      </g>
    </g>
  </g>
</svg>
